<?xml version="1.0" encoding="utf-8"?>
<!-- Generator: Adobe Illustrator 18.0.0, SVG Export Plug-In . SVG Version: 6.00 Build 0)  -->
<!DOCTYPE svg PUBLIC "-//W3C//DTD SVG 1.1//EN" "http://www.w3.org/Graphics/SVG/1.1/DTD/svg11.dtd">
<svg version="1.1" id="Camada_1" xmlns="http://www.w3.org/2000/svg" xmlns:xlink="http://www.w3.org/1999/xlink" x="0px" y="0px"
	 viewBox="0 0 28.2 15.4" enable-background="new 0 0 28.2 15.4" xml:space="preserve">
<path fill="#C3B59C" d="M27.3,7.8c-0.6-0.2-1.2,0.1-1.4,0.7c-0.4,1,0.5,1.5,0.8,1.3c0.2-0.2-0.6-0.4-0.3-1.2
	c0.2-0.6,1.3-0.4,1.2,0.6c-0.1,0.5-0.3,1.1-0.9,1.5c-1.3,0.9-2.8,0.3-3.7-0.4c0,0,0,0,0,0c3.1-2.3,2.7-5.4,0.5-5.8
	c-1.9-0.4-4,2.1-1.6,5.4c-0.1,0.1-0.3,0.2-0.4,0.2c-1.3,0.7-2.9,0.9-4.5,0.3c0.8-0.6,2-1.6,2.5-2.8c0.7-1.7,0.3-4.2-2.6-4.4
	c-0.1,0-0.1,0-0.1,0c0-2.2-1.3-3.3-2.6-3.3c-1.3,0-2.6,1.1-2.6,3.3c-0.1,0-0.1,0-0.1,0C8.5,3.6,8.1,5.9,8.7,7.6
	c0.4,1.1,1.4,2,2.5,2.9c-1.7,0.6-3.2,0.4-4.5-0.3c-0.2-0.1-0.3-0.2-0.4-0.2c2.4-3.3,0.3-5.8-1.6-5.4c-2.1,0.5-2.6,3.5,0.5,5.8
	c0,0,0,0,0,0c-0.9,0.7-2.3,1.3-3.6,0.4c-0.6-0.4-0.8-1-0.9-1.5c-0.1-1.1,1-1.2,1.2-0.6c0.3,0.8-0.6,0.9-0.3,1.2
	c0.2,0.2,1.2-0.4,0.8-1.3C2.1,8,1.5,7.7,0.9,7.8C0.4,8-0.1,8.5,0,9.5c0.3,2.5,3.7,3.1,5.6,1.3c2.1,1.2,4.4,0.9,6,0.2
	c0.7,0.5,1.3,1,2.1,1.6c0,0-0.7,0.6-0.8,1.5c-0.1,0.9,0.5,1.5,1,1.5c0.6,0,1.1-0.6,1-1.5c0-0.9-0.8-1.5-0.8-1.5
	c0.8-0.6,1.5-1,2.1-1.6c1.7,0.7,3.9,1.1,6-0.2c2,1.8,5.3,1.3,5.6-1.3C28.3,8.5,27.8,8,27.3,7.8z M4.6,5.4c1.7-0.9,2.9,1.9,1.3,4.3
	C4.4,8.8,3.3,6.1,4.6,5.4z M14.1,1.3c1,0,1.8,0.4,2,2.1c-1.2,0.1-1.7,0.8-2,1.1c-0.2-0.4-0.7-1-2-1.1C12.3,1.7,13.1,1.3,14.1,1.3z
	 M12.1,3.7c1.3,0.2,1.8,1.2,1.9,1.8c0,0.1,0.2,0.1,0.2,0c0.1-0.6,0.5-1.6,1.9-1.8c0,0.3,0,0.7-0.1,1.1c-0.2,1.9-1.6,3.5-1.9,3.8
	c-0.3-0.4-1.7-1.9-1.9-3.8C12.1,4.4,12.1,4,12.1,3.7z M10.6,8.8c-1.4-1.8-1.2-5,0.9-5.1c0,0.1,0,0.1,0,0.2c0.1,2.8,1.5,4.2,2.3,5.1
	c-0.7,0.6-1.3,1-2,1.4C11.5,9.9,11,9.3,10.6,8.8z M14.6,14.5c-0.1,0.2-0.3,0.4-0.5,0.4c-0.2,0-0.4-0.2-0.5-0.4
	c-0.4-0.9,0.3-1.7,0.5-2C14.4,12.8,15,13.7,14.6,14.5z M14.1,12.2c-0.3-0.2-1-0.8-1.9-1.6c0.8-0.4,1.5-0.9,1.9-1.4
	c0.4,0.5,1.1,0.9,1.9,1.4C15.1,11.5,14.4,12,14.1,12.2z M16.3,10.3c-0.7-0.3-1.3-0.7-2-1.4c0.9-0.8,2.2-2.3,2.3-5.1
	c0-0.1,0-0.1,0-0.2c2.1,0.2,2.3,3.3,0.8,5.3C17.1,9.4,16.7,9.9,16.3,10.3z M23.6,5.4c1.3,0.7,0.2,3.4-1.3,4.3
	C20.6,7.3,21.9,4.5,23.6,5.4z"/>
</svg>
