<?xml version="1.0" encoding="utf-8"?>
<!-- Generator: Adobe Illustrator 18.0.0, SVG Export Plug-In . SVG Version: 6.00 Build 0)  -->
<!DOCTYPE svg PUBLIC "-//W3C//DTD SVG 1.1//EN" "http://www.w3.org/Graphics/SVG/1.1/DTD/svg11.dtd">
<svg version="1.1" id="Capa_1" xmlns="http://www.w3.org/2000/svg" xmlns:xlink="http://www.w3.org/1999/xlink" x="0px" y="0px"
	 viewBox="0 0 16 16" enable-background="new 0 0 16 16" xml:space="preserve">
<path fill="#FFFFFF" d="M9.2,8.5L12,5.7c0.2-0.2,0.2-0.5,0-0.7c-0.2-0.2-0.5-0.2-0.7,0L8.5,7.8L5.7,5C5.5,4.8,5.2,4.8,5,5
	S4.8,5.5,5,5.7l2.8,2.8L5,11.3c-0.2,0.2-0.2,0.5,0,0.7s0.5,0.2,0.7,0l2.8-2.8l2.8,2.8c0.2,0.2,0.5,0.2,0.7,0s0.2-0.5,0-0.7L9.2,8.5z
	"/>
</svg>
