<?xml version="1.0" encoding="utf-8"?>
<!-- Generator: Adobe Illustrator 18.0.0, SVG Export Plug-In . SVG Version: 6.00 Build 0)  -->
<!DOCTYPE svg PUBLIC "-//W3C//DTD SVG 1.1//EN" "http://www.w3.org/Graphics/SVG/1.1/DTD/svg11.dtd">
<svg version="1.1" id="Camada_1" xmlns="http://www.w3.org/2000/svg" xmlns:xlink="http://www.w3.org/1999/xlink" x="0px" y="0px"
	 viewBox="0 0 45 36.7" enable-background="new 0 0 45 36.7" xml:space="preserve">
<path fill-rule="evenodd" clip-rule="evenodd" fill="#676155" d="M2.4,0h40.2C43.9,0,45,1.1,45,2.5v31.8c0,1.4-1.1,2.5-2.4,2.5H2.4
	c-1.3,0-2.4-1.1-2.4-2.5V2.5C0,1.1,1.1,0,2.4,0z"/>
<path fill="#FFFFFF" d="M36,24.3c0,0.4-0.2,0.9-0.5,1.2c-0.7,0.7-1.8,0.7-2.5,0L22.5,14.9L11.9,25.5c-0.7,0.7-1.8,0.7-2.5,0
	c-0.7-0.7-0.7-1.8,0-2.5l13-13l13,13C35.8,23.4,36,23.8,36,24.3z"/>
</svg>
