<?xml version="1.0" encoding="utf-8"?>
<!-- Generator: Adobe Illustrator 18.0.0, SVG Export Plug-In . SVG Version: 6.00 Build 0)  -->
<!DOCTYPE svg PUBLIC "-//W3C//DTD SVG 1.1//EN" "http://www.w3.org/Graphics/SVG/1.1/DTD/svg11.dtd">
<svg version="1.1" id="Camada_1" xmlns="http://www.w3.org/2000/svg" xmlns:xlink="http://www.w3.org/1999/xlink" x="0px" y="0px"
	 viewBox="0 0 31 31" enable-background="new 0 0 31 31" xml:space="preserve">
<path fill="#8C836F" d="M15.5,0c-5.5,0-10,4.6-10,10.3c0,2.3,1.4,6,4.3,11.4c2.1,3.8,4.1,7,4.2,7.1l1.5,2.3l1.5-2.3
	c0.1-0.1,2.1-3.3,4.2-7.1c2.9-5.4,4.3-9.1,4.3-11.4C25.5,4.6,21,0,15.5,0z M15.5,15.5c-2.9,0-5.2-2.4-5.2-5.3c0-2.9,2.3-5.3,5.2-5.3
	c2.9,0,5.2,2.4,5.2,5.3C20.7,13.1,18.4,15.5,15.5,15.5z"/>
</svg>
