<?xml version="1.0" encoding="utf-8"?>
<!-- Generator: Adobe Illustrator 18.0.0, SVG Export Plug-In . SVG Version: 6.00 Build 0)  -->
<!DOCTYPE svg PUBLIC "-//W3C//DTD SVG 1.1//EN" "http://www.w3.org/Graphics/SVG/1.1/DTD/svg11.dtd">
<svg version="1.1" id="Camada_1" xmlns="http://www.w3.org/2000/svg" xmlns:xlink="http://www.w3.org/1999/xlink" x="0px" y="0px"
	 viewBox="0 0 44 44" enable-background="new 0 0 44 44" xml:space="preserve">
<path fill="#8C836F" d="M31.4,17.3c0.1,0.3,0,0.7-0.4,0.9c-0.3,0.1-0.7,0-0.9-0.4c-0.2-0.4-0.4-0.9-0.7-1.3
	c-0.3-0.4-0.6-0.8-0.9-1.1l0,0c-0.3-0.3-0.7-0.6-1.1-0.9c-0.4-0.3-0.8-0.5-1.2-0.7c-0.3-0.1-0.5-0.5-0.4-0.9
	c0.1-0.3,0.5-0.5,0.9-0.4c0.5,0.2,1,0.5,1.5,0.8c0.5,0.3,0.9,0.7,1.3,1.1l0,0l0,0c0.4,0.4,0.8,0.8,1.1,1.3
	C30.9,16.3,31.2,16.8,31.4,17.3z"/>
<path fill="#8C836F" d="M35.7,17.4c0.1,0.4-0.1,0.7-0.5,0.8c-0.4,0.1-0.7-0.1-0.8-0.5c-0.3-1-0.6-1.9-1.1-2.7
	c-0.5-0.9-1.1-1.7-1.8-2.4c-0.7-0.7-1.5-1.3-2.4-1.8c-0.9-0.5-1.8-0.9-2.7-1.1c-0.4-0.1-0.6-0.5-0.5-0.8c0.1-0.4,0.5-0.6,0.8-0.5
	c1.1,0.3,2.1,0.7,3.1,1.3c1,0.6,1.9,1.2,2.6,2c0.8,0.8,1.5,1.7,2,2.6C34.9,15.3,35.4,16.3,35.7,17.4z"/>
<path fill="#8C836F" d="M39.8,17.4c0.1,0.4-0.2,0.7-0.5,0.8c-0.4,0.1-0.7-0.2-0.8-0.5c-0.3-1.5-0.8-2.9-1.5-4.3l0,0
	c-0.7-1.3-1.6-2.5-2.7-3.6l0,0c-1.1-1.1-2.3-2-3.7-2.7c-1.3-0.7-2.8-1.2-4.3-1.5c-0.4-0.1-0.6-0.4-0.5-0.8c0.1-0.4,0.4-0.6,0.8-0.5
	c1.6,0.3,3.2,0.9,4.6,1.7c1.5,0.8,2.8,1.8,4,2.9l0,0c1.2,1.2,2.2,2.5,2.9,3.9l0,0C38.9,14.2,39.5,15.8,39.8,17.4z"/>
<path fill="#8C836F" d="M43.3,35.7c0.3,0.2,0.4,0.6,0.1,0.9c-0.2,0.3-0.6,0.4-0.9,0.1L32,29.1l-0.7,0.7l-1.1,1.1
	c-2.6,2.6-6.5,2-10.1-0.2c-1.3-0.8-2.6-1.9-3.8-3c-1.2-1.2-2.2-2.5-3-3.8c-2.2-3.6-2.8-7.5-0.2-10l1.8-1.8L7.6,2.1L4.4,5.4l0,0l0,0
	c-2.6,2.6-3.2,6-1.9,10.1c1.4,4.3,4.8,9.4,10.5,15.1l0.2,0.2l0,0c0.4,0.4,0.7,0.7,1,0.9c5.5,5.3,10.4,8.6,14.6,9.9
	c4,1.2,7.3,0.6,9.8-1.9l0,0l0.1-0.1l0.9-0.9c0.3-0.3,0.7-0.3,1,0c0.3,0.3,0.3,0.7,0,1l-0.9,0.9l0,0l-0.1,0.1l0,0
	c-2.9,2.9-6.6,3.6-11.1,2.3c-4.4-1.3-9.5-4.7-15.1-10.2c-0.4-0.4-0.7-0.7-1-1l0,0l0,0L12,31.5C6.2,25.7,2.6,20.4,1.1,15.9
	c-1.5-4.7-0.7-8.5,2.3-11.5l0,0l0,0l0,0l3.8-3.8c0,0,0,0,0.1-0.1C7.6,0.3,8,0.4,8.3,0.7l8,10.9c0.2,0.3,0.2,0.7,0,0.9l-2.2,2.2
	c-2.1,2.1-1.5,5.3,0.4,8.4c0.8,1.2,1.7,2.5,2.8,3.6c1.1,1.1,2.3,2.1,3.6,2.8c3.1,1.9,6.3,2.5,8.4,0.4l1.1-1.1l1.1-1.1l0,0
	c0.2-0.2,0.6-0.3,0.9-0.1L43.3,35.7z"/>
<path fill="#8C836F" d="M40.4,38.7c0.3,0.2,0.4,0.6,0.1,0.9c-0.2,0.3-0.6,0.4-0.9,0.1l-2.7-2l-2.7-2l-2.7-2
	c-0.3-0.2-0.4-0.6-0.1-0.9c0.2-0.3,0.6-0.4,0.9-0.1l2.7,2l2.7,2L40.4,38.7z"/>
<path fill="#8C836F" d="M4.2,4.4C4,4.1,4.1,3.7,4.4,3.5c0.3-0.2,0.7-0.2,0.9,0.1l2,2.7l2,2.7l2,2.7c0.2,0.3,0.2,0.7-0.1,0.9
	c-0.3,0.2-0.7,0.2-0.9-0.1l-2-2.7l-2-2.7L4.2,4.4z"/>
</svg>
