<?xml version="1.0" encoding="utf-8"?>
<!-- Generator: Adobe Illustrator 18.0.0, SVG Export Plug-In . SVG Version: 6.00 Build 0)  -->
<!DOCTYPE svg PUBLIC "-//W3C//DTD SVG 1.1//EN" "http://www.w3.org/Graphics/SVG/1.1/DTD/svg11.dtd">
<svg version="1.1" id="Camada_1" xmlns="http://www.w3.org/2000/svg" xmlns:xlink="http://www.w3.org/1999/xlink" x="0px" y="0px"
	 viewBox="0 0 126.3 26" enable-background="new 0 0 126.3 26" xml:space="preserve">
<path fill-rule="evenodd" clip-rule="evenodd" fill="#8C836F" d="M3,0h20c1.7,0,3,1.3,3,3v20c0,1.7-1.3,3-3,3H3c-1.7,0-3-1.3-3-3V3
	C0,1.3,1.3,0,3,0z"/>
<path fill-rule="evenodd" clip-rule="evenodd" fill="#FFFFFF" d="M21,23H5c-1.1,0-2-0.9-2-2v-7v-3h20v3v7C23,22.1,22.1,23,21,23z"/>
<path fill-rule="evenodd" clip-rule="evenodd" fill="#8C836F" d="M13,5c4.4,0,8,3.6,8,8s-3.6,8-8,8s-8-3.6-8-8S8.6,5,13,5z"/>
<path fill-rule="evenodd" clip-rule="evenodd" fill="#FFFFFF" d="M13,8c2.8,0,5,2.2,5,5c0,2.8-2.2,5-5,5s-5-2.2-5-5
	C8,10.2,10.2,8,13,8z"/>
<path fill-rule="evenodd" clip-rule="evenodd" fill="#FFFFFF" d="M20,3h1c1.1,0,2,0.9,2,2v1c0,1.1-0.9,2-2,2h-1c-1.1,0-2-0.9-2-2V5
	C18,3.9,18.9,3,20,3z"/>
<g>
	<path fill="#8C836F" d="M39.2,0.1c-1.9,0.8-3.9,3-4.6,5.8c-0.8,3.5,2.6,5,2.9,4.5c0.3-0.6-0.6-0.8-0.8-2.6c-0.3-2.4,0.8-5,2.2-6.2
		c0.3-0.2,0.2,0.1,0.2,0.6c0,1-0.1,9.9-0.1,11.8c0,2.5-0.1,3.3-0.3,4.1c-0.2,0.8-0.5,1.3-0.3,1.5c0.3,0.2,1.4-0.3,2-1.2
		c0.8-1.1,1-2.3,1.1-3.7c0.1-1.7,0.1-4.3,0.1-5.9c0-1.4,0-5.5,0-7.9C41.7,0.4,40-0.2,39.2,0.1z"/>
	<path fill="#8C836F" d="M125.9,13.3c-0.3,0-0.4,0.3-0.5,0.8c-0.4,1.6-0.7,2-1.2,2c-0.5,0-1-0.8-1.2-2.4c-0.1-1.3-0.1-3.6,0-6
		c0-0.5-0.1-1-1.4-1.4c-0.6-0.2-1.4-0.5-1.8,0.5c-1.1,2.7-1.6,4.9-1.7,5.8c0,0-0.1,0.1-0.1-0.1c-0.1-0.7-0.2-2-0.2-4.7
		c0-0.5-0.1-1-0.7-1.3c-0.4-0.2-1.5-0.7-1.9-0.2c-0.4,0.4-0.8,1.5-1.2,2.8c-0.4,1.1-0.6,1.8-0.6,1.8s0-2.9,0-4
		c0-0.4-0.3-0.5-0.4-0.6C112.8,6.2,112,6,111.7,6c-0.4,0-0.5,0.2-0.5,0.5c0,0-0.1,3.8-0.1,6.4c0,0.1,0,0.2,0,0.4
		c-0.2,1.2-0.9,2.8-1.7,2.8c-0.8,0-1.1-0.7-1.1-3.8c0-1.8,0.1-2.6,0.1-3.9c0-0.8,0-1.3,0-1.5c0-0.4-0.7-0.6-1-0.7
		c-0.3-0.1-0.6-0.1-0.8-0.1c-0.3,0-0.5,0.2-0.5,0.5c0,0.2,0,0.4,0,0.4c-0.4-0.6-1.1-1.1-1.5-1.2c-1.2-0.3-2.4,0-3.3,1.2
		c-0.7,1-1.2,2.2-1.3,3.8c-0.1,1.2-0.1,2.5,0.1,3.5c-0.3,1.2-0.8,1.7-1.3,1.7c-0.8,0-1.4-1.3-1.3-3.6c0-1.5,0.3-2.5,0.7-4.1
		c0.1-0.6,0-1-0.3-1.3c-0.3-0.3-0.8-0.4-1.6-0.3c-0.6,0.1-1.4,0.3-2.1,0.4c0,0,0-0.2,0.1-0.5c0.2-1.7-1.6-1.5-2.2-1
		c-0.3,0.3-0.6,0.7-0.7,1.4C91.1,8.3,92,8.8,92,8.8c-0.3,1.3-1,3-1.7,4.2c-0.4,0.7-0.7,1.1-1.1,1.7c0-0.2,0-0.4,0-0.6
		c0-2.7,0-4.9,0-5.7c0-0.8,0-1.3,0-1.5c0-0.3-0.2-0.4-0.5-0.6c-0.3-0.1-0.7-0.2-1.1-0.2c-0.5,0-0.8,0.2-0.8,0.5c0,0.1,0,0.4,0,0.4
		c-0.4-0.6-1.1-1.1-1.5-1.2c-1.2-0.3-2.4,0-3.3,1.2c-0.7,1-1.2,2.5-1.3,3.8c-0.1,1.3-0.1,2.4,0.1,3.3c-0.2,0.9-0.7,1.9-1.3,1.9
		c-0.8,0-1.2-0.7-1.2-3.8c0-1.8,0.1-2.6,0.1-3.9c0-0.8,0-1.3,0-1.5c0-0.4-0.7-0.6-1-0.7c-0.3-0.1-0.6-0.1-0.9-0.1
		c-0.3,0-0.5,0.3-0.5,0.5c0,0.2,0,0.5,0,0.5c-0.4-0.6-1.1-1.1-1.5-1.2c-1.2-0.3-2.4,0-3.3,1.2C70.6,8,70.1,8.9,69.8,11
		c-0.1,0.6-0.1,1.1-0.1,1.7c-0.2,1.5-1.3,3.2-2.2,3.2c-0.5,0-1-1-1-3.1c0-2.8,0.2-6.8,0.2-7.2c0,0,1.1,0,1.3,0c0.5,0,1,0,1.8,0
		c0.4,0,0.7-1.3,0.3-1.5c-0.2-0.1-1.4-0.1-1.9-0.1c-0.4,0-1.5-0.1-1.5-0.1s0.1-2.7,0.1-2.9c0-0.2-0.3-0.4-0.5-0.4
		c-0.4-0.2-0.8-0.3-1.2-0.4c-0.6-0.1-0.9,0-1,0.5c-0.1,0.8-0.1,3.1-0.1,3.1c-0.5,0-2-0.1-2.5-0.1c-0.4,0-0.9,1.8-0.3,1.8
		c0.7,0,1.8,0,2.6,0.1c0,0,0,4.1,0,5.3c0,0.1,0,0.3,0,0.4c-0.4,2.2-1.9,3.4-1.9,3.4c0.3-1.5-0.3-2.6-1.5-3.5c-0.4-0.3-1.3-1-2.3-1.7
		c0,0,0.6-0.6,1.1-1.7c0.4-0.8,0.4-1.7-0.5-1.9c-1.4-0.3-2.6,0.7-2.9,1.8c-0.3,0.9-0.1,1.5,0.4,2.2c0,0,0.1,0.1,0.1,0.1
		c-0.3,0.6-0.8,1.5-1.1,2.1c-1,1.8-1.8,3.2-2.4,3.2c-0.5,0-0.5-1.4-0.5-2.8c0-1.2,0.1-2.9,0.2-4.7c0-0.6-0.3-0.9-0.8-1.2
		c-0.3-0.2-1-0.6-1.3-0.6c-0.6,0-2.2,0.1-3.7,4.5c-0.2,0.6-0.6,1.6-0.6,1.6l0-5.4c0-0.1-0.1-0.2-0.2-0.3C45.7,6.3,45,6,44.4,6
		c-0.3,0-0.4,0.1-0.4,0.4l-0.1,8.4c0,0.6,0,1.4,0.1,1.7c0.1,0.3,0.2,0.6,0.3,0.7c0.1,0.2,0.3,0.3,0.5,0.3c0.2,0,1.4,0.2,1.5-0.3
		c0.1-0.6,0.1-1.2,0.7-3.4c1-3.5,2.3-5.2,2.9-5.8C50,8,50.1,7.9,50.1,8.1c0,0.8-0.1,2.7-0.2,4.3c-0.2,4.4,0.6,5.2,1.8,5.2
		c0.9,0,2.1-0.9,3.4-3.1c0.8-1.4,1.6-2.7,2.2-3.7c0.4,0.4,0.8,0.8,1.3,1.2c1,1,1.4,1.9,1.2,2.8c-0.2,0.7-0.8,1.4-2,0.7
		c-0.3-0.2-0.5-0.4-0.8-0.6c-0.2-0.1-0.5-0.2-0.6,0c-0.4,0.3-0.7,0.7-0.8,1.3c-0.1,0.5,0.4,0.8,0.9,1c0.4,0.2,1.4,0.4,2,0.4
		c2.4,0.1,4.3-1.2,5.6-4.3c0.2,2.8,1.3,4.3,3,4.3c1.2,0,2.4-1.5,2.9-3c0.1,0.6,0.4,1.1,0.7,1.6c1.4,2.2,4,1.7,5.3-0.1
		c0.4-0.6,0.5-0.8,0.5-0.8c0.2,1.7,1.6,2.3,2.4,2.3c0.9,0,1.8-0.4,2.5-1.9c0.1,0.2,0.2,0.3,0.2,0.5c1.4,2.2,4,1.7,5.3-0.1
		c0.1-0.1,0.1-0.2,0.2-0.2l0,1.1c0,0-0.8,0.7-1.2,1.1c-2,1.9-3.6,3.3-3.7,5c-0.1,2.1,1.6,2.9,2.9,3c1.4,0.1,2.6-0.7,3.3-1.7
		c0.6-0.9,1.1-3,1-4.9c0-0.8,0-1.8,0-2.9c0.7-0.8,1.5-1.9,2.3-3.1c0.8-1.3,1.7-3.2,2.1-4.6c0,0,0.8,0,1.6,0c0.3,0,0.3,0,0.3,0.2
		c-0.1,0.2-1,3.9-0.1,6.4c0.6,1.7,2,2.2,2.8,2.2c0.9,0,1.8-0.7,2.3-1.8c0.1,0.1,0.1,0.2,0.2,0.3c1.4,2.2,4,1.7,5.3-0.1
		c0.3-0.4,0.5-0.8,0.5-0.8c0.3,1.8,1.7,2.3,2.5,2.3c0.8,0,1.6-0.3,2.3-1.9c0,0.7,0.1,1.2,0.1,1.4c0,0.1,0.3,0.2,0.4,0.3
		c0.8,0.3,1.5,0.1,1.8,0.1c0.2,0,0.4-0.2,0.4-0.6c0.1-1.1,0-2.9,0.3-4.2c0.5-2.3,1.1-3.1,1.3-3.6c0.1-0.2,0.3-0.3,0.3,0
		c0,0.5,0,2.1,0.3,4.1c0.2,1.5,0.4,2.4,0.5,2.7c0.5,0.8,1,0.8,1.5,0.8c0.3,0,0.9-0.1,0.9-0.6c0-0.3,0-1.8,0.6-4
		c0.4-1.5,0.9-2.8,1.2-3.3c0.1-0.2,0.1,0,0.1,0c0,1-0.1,4.3,0.3,6.1c0.6,2.4,2.2,2.7,2.7,2.7c1.2,0,2.2-0.9,2.5-3.3
		C126.4,13.8,126.3,13.3,125.9,13.3z M76,11.8c-0.1,1.3-0.3,2.3-0.7,3.1c-0.7,1.4-2.1,1.8-2.8-0.2c-0.5-1.4-0.3-3.4-0.1-4.5
		c0.3-1.6,1-2.7,2.1-2.6C75.6,7.8,76.1,9.2,76,11.8z M86.9,11.9c-0.1,1.2-0.4,2.4-0.7,3.1c-0.7,1.4-2.2,1.8-2.8-0.2
		c-0.4-1.4-0.3-3.2-0.1-4.3c0.3-1.5,0.9-2.8,2.1-2.8C86.5,7.7,87,8.9,86.9,11.9z M87.2,20c0,2.2-0.4,4.1-1.1,4.6
		c-1,0.8-2.4,0.2-2.2-1.4c0.3-1.4,1.5-2.8,3.2-4.6C87.2,18.7,87.2,19.1,87.2,20z M106,11.9c-0.1,1.3-0.4,2.3-0.7,3.1
		c-0.7,1.4-2.1,1.8-2.8-0.2c-0.3-1.1-0.3-2.9-0.1-4.5c0.2-1.6,0.9-2.7,2.1-2.6C105.6,7.8,106.1,9.2,106,11.9z"/>
</g>
<line fill="none" x1="-3770" y1="0" x2="4870" y2="0"/>
</svg>
