<?xml version="1.0" encoding="utf-8"?>
<!-- Generator: Adobe Illustrator 18.0.0, SVG Export Plug-In . SVG Version: 6.00 Build 0)  -->
<!DOCTYPE svg PUBLIC "-//W3C//DTD SVG 1.1//EN" "http://www.w3.org/Graphics/SVG/1.1/DTD/svg11.dtd">
<svg version="1.1" id="Layer_1" xmlns="http://www.w3.org/2000/svg" xmlns:xlink="http://www.w3.org/1999/xlink" x="0px" y="0px"
	 viewBox="0 0 527.7 453.8" enable-background="new 0 0 527.7 453.8" xml:space="preserve">
<g>
	<g>
		<path fill="#90846F" d="M7.7,230.5c-5.2,0-7.7,2-7.7,5.9v141.8c0,3.8,2.5,5.9,7.7,5.9c5.2,0,7.7-2,7.7-5.9V236.4
			C15.4,232.6,12.9,230.5,7.7,230.5z"/>
		<path fill="#90846F" d="M225.3,229.6c-14.7,0-26.9,4.7-36.3,14.2c-9.3,9.5-14,22.1-14,37.9v50.1c0,15.8,4.7,28.4,14,37.9
			c9.5,9.5,21.7,14.2,36.3,14.2c14.7,0,26.9-4.7,36.1-14.2c9.5-9.5,14.2-22.1,14.2-37.9v-50.1c0-15.8-4.7-28.4-14.2-37.9
			C252.1,234.4,239.9,229.6,225.3,229.6z M260.3,332.1c0,23.7-14.2,38.4-35,38.4c-20.8,0-35-14.7-35-38.4v-50.6
			c0-23.7,14.2-38.4,35-38.4c20.8,0,35,14.7,35,38.4V332.1z"/>
		<path fill="#90846F" d="M356.6,229.6c-14.7,0-26.9,4.7-36.3,14.2c-9.3,9.5-14,22.1-14,37.9v50.1c0,15.8,4.7,28.4,14,37.9
			c9.5,9.5,21.7,14.2,36.3,14.2c14.9,0,27.1-4.5,36.3-13.3c9.3-8.8,14-21,14-36.1v-0.9c0-3.8-2.5-5.9-7.7-5.9c-5.2,0-7.7,2-7.7,5.9
			v0.9c-0.2,22.8-13.5,35.9-35,35.9c-20.8,0-35-14.7-35-38.4v-50.6c0-23.7,14.2-38.4,35-38.4c21.4,0,34.8,13.1,35,35.9v0.9
			c0,3.8,2.5,5.9,7.7,5.9c5.2,0,7.7-2,7.7-5.9v-0.9c0-15.1-4.7-27.3-14-36.1C383.7,234.2,371.5,229.6,356.6,229.6z"/>
		<path fill="#90846F" d="M528.2,247.5v-11.1c0-3.8-2.5-5.9-7.7-5.9c-5.2,0-7.7,2-7.7,5.9v11.5c0.3,51.1-51.1,57-59.8,72.7v-84.2
			c0-3.8-2.5-5.9-7.7-5.9c-5.2,0-7.7,2-7.7,5.9v141.8c0,3.8,2.5,5.9,7.7,5.9c5.2,0,7.7-2,7.7-5.9v-10.8c0.3-11.3,2.9-35.1,19.4-43.8
			l16.1-9.6c16.2,12.8,24.4,28.7,24.4,47.9v16.3c0,3.8,2.5,5.9,7.7,5.9c5.2,0,7.7-2,7.7-5.9v-15.9c0-23.2-8.5-42-25.5-56.3
			c-0.3-0.4-0.7-0.7-1-1.1c0.1-0.1,0.2-0.3,0.3-0.4C519.5,290.1,528.2,271,528.2,247.5z"/>
		<path fill="#90846F" d="M118.7,306c-0.3-0.4-0.7-0.7-1-1.1c38.7-20.5,23.4-51.9,23.5-51.9c-6.9-13.5-20.5-22.4-39.2-22.4H61.4
			c-5.2,0-7.7,2-7.7,5.9v141.8c0,3.8,2.5,5.9,7.7,5.9c5.2,0,7.7-2,7.7-5.9v-12.6c0.3-11.3,2.9-33.3,19.4-42l16.1-9.6
			c16.2,12.8,24.4,27,24.4,46.1v18.1c0,3.8,2.5,5.9,7.7,5.9c5.2,0,7.7-2,7.7-5.9v-17.6C144.2,337.3,135.8,320.3,118.7,306z
			 M69.1,320.6v-76.5h32.7c13.1,0,21.9,4.9,26.1,16C137.2,290.1,77.1,306.2,69.1,320.6z"/>
	</g>
	<path fill="#C2B59B" d="M422.2,93.9c-7-1.8-14.5,1.6-17.2,8.5c-4.6,11.5,6.5,18.5,9.2,15.9c2.9-2.7-7-4.4-3.7-13.8
		c2.5-7.1,16-5.2,14.3,7.6c-0.7,5.6-3.7,12.9-10.8,17.6c-16,10.6-33.4,4-43.8-4.6c0,0,0,0,0.1,0c37.2-27.8,31.8-64.5,6.5-70.1
		c-23.2-5.1-48.3,25.5-19.1,65c-1.6,1.1-3.3,2-5.1,2.9c-15.8,7.9-34.3,10.6-54.3,3.2c9.1-6.8,23.6-19,29.8-33.8
		c8.4-20.3,3.4-49.9-31.3-52.4c-0.6,0-1.1,0-1.7-0.1c0-26.1-15.5-39.4-31.2-39.9c-15.7,0.5-31.2,13.7-31.2,39.9
		c-0.6,0-1.1,0-1.7,0.1c-34.7,3.2-38.4,30.8-31.6,51c4.3,12.9,16.4,24.2,30.1,35.3c-20,7.4-38.4,4.7-54.3-3.2
		c-1.8-0.9-3.4-1.9-5-2.9c29.2-39.5,4.1-70.1-19.1-65c-25.4,5.6-30.7,42.3,6.5,70.1c0.1,0,0.1,0.1,0.2,0.1
		c-10.4,8.5-27.8,15.1-43.7,4.5c-7.1-4.7-10-12-10.8-17.6c-1.7-12.9,11.8-14.7,14.3-7.6c3.3,9.3-6.6,11.1-3.7,13.8
		c2.8,2.6,13.8-4.5,9.2-15.9c-2.7-6.8-10.2-10.2-17.2-8.5c-5.9,1.5-12.3,7.5-10.7,19.4c4.1,30.3,43.8,37.3,67.5,15.3
		c25,14.8,52.2,10.4,72.1,1.9c8.1,6.3,15.9,11.7,25.7,18.7c0,0-8.7,7.4-9.2,17.6c-0.6,11.3,5.6,18,12.5,18c7.4,0,13-6.7,12.5-18
		c-0.5-10.2-9.2-17.5-9.2-17.5c9.8-7,17.6-12.5,25.7-18.7c19.9,8.6,47.2,13,72.3-2c23.8,22.1,63.5,15.1,67.6-15.2
		C434.4,101.3,428,95.4,422.2,93.9z M150.3,64.6c20.3-10.2,35.1,22.8,15.4,52C147.4,105.3,134.3,72.6,150.3,64.6z M264,15.1
		c11.7,0.5,21.3,5.1,23.4,24.9c-14.5,1.4-20.8,9.1-23.4,13.7c-2.6-4.6-8.9-12.3-23.4-13.7C242.6,20.2,252.3,15.5,264,15.1z
		 M240.3,44.1c16.1,2.4,21,14.6,22.5,21.3c0.2,1,2,1,2.2,0c1.5-6.8,6.5-18.9,22.5-21.3c0.1,3.7,0,7.9-0.6,12.6
		c-2.6,22.8-18.9,41.5-23,45.9c-4.1-4.4-20.4-23.1-23-45.9C240.4,52.1,240.2,47.9,240.3,44.1z M222.4,105.1
		c-16.4-22.1-14.2-59.4,10.4-61.3c0,0.7,0,1.3,0,1.9c1.5,33.2,17.9,50.9,28.1,60.8c-8.5,7.7-15.8,12.4-23.9,16.4
		C232.6,118.1,226.8,111,222.4,105.1z M270.4,174.3c-1.3,2.9-3.8,4.4-6.4,4.7c-2.6-0.3-5.1-1.8-6.4-4.7c-4.9-10.6,3-20.9,6.4-23.6
		C267.4,153.4,275.3,163.7,270.4,174.3z M264,146.7c-3.4-2.5-12.4-9.3-22.5-19.4c9.5-4.9,17.4-10.8,22.5-16.2
		c5.1,5.5,13,11.3,22.5,16.2C276.3,137.4,267.4,144.2,264,146.7z M290.8,122.9c-8.1-4-15.4-8.7-23.9-16.4
		c10.3-9.9,26.6-27.6,28.1-60.8c0-0.7,0-1.3,0-1.9c24.6,1.9,27.4,39.3,9.3,63.3C300,112.9,295.3,118.1,290.8,122.9z M377.7,64.6
		c16,8,2.9,40.6-15.4,52C342.6,87.4,357.3,54.4,377.7,64.6z"/>
	<g>
		<path fill="#90846F" d="M95.1,452.7v-27.4h1.7v4.5c1.8-3.4,4.6-5.1,8.6-5.1c4.4,0,7.1,1.9,8.1,5.6c1.9-3.7,4.9-5.6,8.9-5.6
			c5.8,0,8.7,3.3,8.7,9.8v18.2h-1.7v-16.5c0-3.1-0.3-5.2-0.8-6.5c-1-2.4-3.1-3.5-6.3-3.5c-3.3,0-5.6,1.2-6.9,3.6
			c-1,1.8-1.5,4.5-1.5,8.1v14.8h-1.6v-16.5c0-3.1-0.3-5.2-0.8-6.5c-1-2.4-3.1-3.5-6.2-3.5c-4.7,0-7.4,2.3-8.2,7
			c-0.2,1-0.3,2.6-0.3,4.7v14.8H95.1z"/>
		<path fill="#90846F" d="M158,446.8c-1.8,4.4-5.2,6.7-10.4,6.7c-4,0-7.1-1.4-9.2-4.3c-1.9-2.5-2.9-5.9-2.9-10.1
			c0-4.2,0.9-7.6,2.8-10.1c2.1-2.9,5.2-4.3,9.3-4.3c5.1,0,8.6,2.3,10.4,6.9v-6.3h1.6v27.5H158V446.8z M137.2,439.1
			c0,3.7,0.8,6.7,2.4,8.9c1.8,2.6,4.5,4,8,4c3.5,0,6.2-1.3,8-4c1.6-2.3,2.4-5.2,2.4-8.9c0-3.7-0.8-6.6-2.4-8.9c-1.8-2.6-4.5-4-8-4
			c-3.5,0-6.2,1.3-8,4C138,432.4,137.2,435.4,137.2,439.1z"/>
		<path fill="#90846F" d="M168.4,416.7c0-1.7,0.4-2.5,1.1-2.5c0.8,0,1.2,0.8,1.2,2.5c0,1.7-0.4,2.5-1.2,2.5
			C168.7,419.2,168.4,418.4,168.4,416.7z M168.7,452.7v-27.4h1.6v27.4H168.7z"/>
		<path fill="#90846F" d="M178.4,444.6c0.9,4.9,3.8,7.3,8.8,7.3c2.2,0,4-0.5,5.5-1.4c1.7-1.1,2.6-2.7,2.6-4.8c0-2.5-1.8-4.3-5.4-5.3
			c-0.2-0.1-0.7-0.2-1.4-0.4c-4.5-1.2-7.4-2.3-8.7-3.3c-1.5-1.2-2.2-2.8-2.2-4.8c0-2.4,1-4.2,3-5.5c1.8-1.1,3.9-1.7,6.4-1.7
			c2.6,0,4.7,0.7,6.3,2c1.7,1.4,2.7,3.3,2.9,5.9h-1.6c-0.6-4.3-3.2-6.4-7.8-6.4c-1.9,0-3.6,0.4-5,1.3c-1.6,1-2.5,2.4-2.5,4.3
			c0,2.7,2.8,4.8,8.4,6.3c0.1,0,0.3,0.1,0.5,0.2c2.9,0.7,4.9,1.5,6,2.2c1.9,1.2,2.8,3,2.8,5.3c0,2.5-1.1,4.4-3.2,5.9
			c-1.8,1.3-4.1,1.9-6.6,1.9c-3,0-5.4-0.7-7.2-2.2c-1.9-1.6-3-3.8-3.3-6.7H178.4z"/>
		<path fill="#90846F" d="M201.9,439.1c0-4.2,0.9-7.5,2.8-10.1c2.1-2.9,5.2-4.3,9.2-4.3s7.1,1.4,9.2,4.3c1.9,2.5,2.9,5.9,2.9,10.1
			c0,4.2-1,7.5-2.9,10.1c-2.1,2.9-5.2,4.3-9.2,4.3s-7.1-1.4-9.2-4.3C202.8,446.6,201.9,443.2,201.9,439.1z M203.6,439.1
			c0,3.7,0.8,6.6,2.4,8.9c1.8,2.6,4.5,4,8,4c3.5,0,6.2-1.3,8-4c1.6-2.3,2.4-5.3,2.4-8.9c0-3.7-0.8-6.6-2.4-8.9c-1.8-2.6-4.5-4-8-4
			c-3.5,0-6.2,1.3-8,4C204.4,432.4,203.6,435.4,203.6,439.1z"/>
		<path fill="#90846F" d="M232,452.7v-27.4h1.7v4.5c1.7-3.4,4.8-5.1,9.2-5.1c6.3,0,9.4,3.3,9.4,9.8v18.2h-1.7V435
			c0-2.9-0.5-5.1-1.6-6.5c-1.2-1.6-3.2-2.4-6.1-2.4c-5.2,0-8.2,2.3-9,7c-0.2,1-0.3,2.6-0.3,4.8v14.7H232z"/>
		<path fill="#90846F" d="M321.7,452.7v-38h1.7v16.8c1.9-4.5,5.4-6.8,10.4-6.8c4,0,7.1,1.4,9.2,4.3c1.9,2.5,2.9,5.9,2.9,10.1
			c0,4.2-0.9,7.6-2.8,10.1c-2.1,2.9-5.2,4.3-9.3,4.3c-4.8,0-8.2-2.2-10.4-6.6v5.8H321.7z M323.4,439.1c0,3.7,0.8,6.6,2.4,8.9
			c1.8,2.6,4.5,4,8,4c3.5,0,6.2-1.3,8-4c1.6-2.3,2.4-5.3,2.4-8.9c0-3.7-0.8-6.7-2.4-9c-1.8-2.6-4.5-4-8.1-4c-3.5,0-6.2,1.3-8,4
			C324.1,432.4,323.4,435.4,323.4,439.1z"/>
		<path fill="#90846F" d="M369.9,425.1v27.4h-1.7v-4.3c-1.7,3.4-4.8,5-9.2,5c-6.3,0-9.4-3.3-9.4-9.8v-18.4h1.7v17.8
			c0,2.9,0.5,5.1,1.6,6.5c1.2,1.6,3.3,2.3,6.1,2.3c5.2,0,8.2-2.3,9-7c0.2-1,0.3-2.6,0.3-4.8v-14.9H369.9z"/>
		<path fill="#90846F" d="M376,421.4c0-2.4,0.3-4.1,0.8-5c0.7-1.3,2.1-1.9,4.3-1.9l4.9,0v1.4h-4.6c-1.7,0-2.8,0.5-3.3,1.6
			c-0.3,0.7-0.5,2-0.5,3.9v3.9h5.4v1.5h-5.4v25.9H376V421.4z"/>
		<path fill="#90846F" d="M388.1,421.4c0-2.4,0.3-4.1,0.8-5c0.7-1.3,2.1-1.9,4.3-1.9l4.9,0v1.4h-4.6c-1.7,0-2.8,0.5-3.3,1.6
			c-0.3,0.7-0.5,2-0.5,3.9v3.9h5.4v1.5h-5.4v25.9h-1.6V421.4z"/>
		<path fill="#90846F" d="M416.8,451.1c-2,1.6-4.4,2.4-7.1,2.4c-3.9,0-6.9-1.5-9-4.4c-1.8-2.6-2.7-5.9-2.7-10c0-4.1,0.9-7.4,2.7-10
			c2.1-2.9,5.1-4.4,9-4.4c3.8,0,6.8,1.3,8.8,4c1.8,2.4,2.7,5.5,2.7,9.5v1h-21.4v0.4c0,3.4,0.8,6.2,2.3,8.5c1.8,2.6,4.3,3.9,7.5,3.9
			c4.4,0,7.4-2.1,9-6.3l1.4,0.8C419.4,448.3,418.3,449.9,416.8,451.1z M399.8,437.6h19.6c0-3.2-0.8-5.8-2.3-7.9
			c-1.7-2.4-4.1-3.6-7.1-3.6c-3.2,0-5.7,1.2-7.5,3.5C400.9,431.6,400,434.3,399.8,437.6z"/>
		<path fill="#90846F" d="M425.9,417.7h1.7v7.5h5.5v1.5h-5.5v26h-1.7V417.7z"/>
		<path fill="#90846F" d="M296,446.1c1.6-2.8,2.5-6.3,2.5-10.5l-1.7,0c0,3.7-0.6,6.8-1.9,9.2c-1.2,2.2-2.8,4-5,5.3
			c-2.2,1.4-4.5,2.1-6.9,2.1c-2.8,0-5-0.9-6.8-2.8c-1.8-1.9-2.7-4.2-2.7-7c0-2.3,1-4.5,3-6.6c1.6-1.7,4-3.2,7.4-4.6
			c1.3-0.6,2.4-1.2,3.4-1.9c2.3-1.4,3.8-4,3.8-7c0-4.5-3.6-8.2-7.9-8.2c-4.4,0-7.9,3.7-7.9,8.2c0,3.8,2.5,6.9,5.9,7.9
			c-6.1,2.8-9.2,6.9-9.3,12.2c-0.1,3.4,1,6.1,3.3,8.2c2.2,2,5,3.1,8.4,3.1c4.3,0,8.2-2,11.4-6.1l4.2,5.1l2.2,0L296,446.1z
			 M277,422.4c0-3.5,2.8-6.4,6.2-6.4c3.4,0,6.2,2.9,6.2,6.4c0,3.5-2.8,6.4-6.2,6.4C279.8,428.8,277,425.9,277,422.4z"/>
	</g>
</g>
</svg>
