<?xml version="1.0" encoding="utf-8"?>
<!-- Generator: Adobe Illustrator 18.0.0, SVG Export Plug-In . SVG Version: 6.00 Build 0)  -->
<!DOCTYPE svg PUBLIC "-//W3C//DTD SVG 1.1//EN" "http://www.w3.org/Graphics/SVG/1.1/DTD/svg11.dtd">
<svg version="1.1" id="Camada_1" xmlns="http://www.w3.org/2000/svg" xmlns:xlink="http://www.w3.org/1999/xlink" x="0px" y="0px"
	 viewBox="0 0 45 14.8" enable-background="new 0 0 45 14.8" xml:space="preserve">
<g>
	<path fill="#908470" d="M1.1,1.2c-0.4,0-0.6,0.2-0.6,0.5v11.8c0,0.3,0.2,0.5,0.6,0.5s0.6-0.2,0.6-0.5V1.7C1.8,1.4,1.6,1.2,1.1,1.2z
		"/>
	<path fill="#908470" d="M19.3,1.1c-1.2,0-2.2,0.4-3,1.2c-0.8,0.8-1.2,1.8-1.2,3.2v4.2c0,1.3,0.4,2.4,1.2,3.2c0.8,0.8,1.8,1.2,3,1.2
		c1.2,0,2.2-0.4,3-1.2c0.8-0.8,1.2-1.8,1.2-3.2V5.5c0-1.3-0.4-2.4-1.2-3.2C21.5,1.5,20.5,1.1,19.3,1.1z M22.2,9.7
		c0,2-1.2,3.2-2.9,3.2c-1.7,0-2.9-1.2-2.9-3.2V5.5c0-2,1.2-3.2,2.9-3.2c1.7,0,2.9,1.2,2.9,3.2V9.7z"/>
	<path fill="#908470" d="M30.2,1.1c-1.2,0-2.2,0.4-3,1.2C26.4,3.1,26,4.2,26,5.5v4.2c0,1.3,0.4,2.4,1.2,3.2c0.8,0.8,1.8,1.2,3,1.2
		c1.2,0,2.3-0.4,3-1.1c0.8-0.7,1.2-1.8,1.2-3V9.8c0-0.3-0.2-0.5-0.6-0.5c-0.4,0-0.6,0.2-0.6,0.5v0.1c0,1.9-1.1,3-2.9,3
		c-1.7,0-2.9-1.2-2.9-3.2V5.5c0-2,1.2-3.2,2.9-3.2c1.8,0,2.9,1.1,2.9,3v0.1c0,0.3,0.2,0.5,0.6,0.5c0.4,0,0.6-0.2,0.6-0.5V5.3
		c0-1.3-0.4-2.3-1.2-3C32.5,1.5,31.5,1.1,30.2,1.1z"/>
	<path fill="#908470" d="M44.5,2.6V1.7c0-0.3-0.2-0.5-0.6-0.5c-0.4,0-0.6,0.2-0.6,0.5v1c0,4.3-4.3,4.8-5,6.1v-7
		c0-0.3-0.2-0.5-0.6-0.5c-0.4,0-0.6,0.2-0.6,0.5v11.8c0,0.3,0.2,0.5,0.6,0.5c0.4,0,0.6-0.2,0.6-0.5v-0.9c0-0.9,0.2-2.9,1.6-3.7
		l1.3-0.8c1.4,1.1,2,2.4,2,4v1.4c0,0.3,0.2,0.5,0.6,0.5c0.4,0,0.6-0.2,0.6-0.5v-1.3c0-1.9-0.7-3.5-2.1-4.7c0,0-0.1-0.1-0.1-0.1
		c0,0,0,0,0,0C43.8,6.2,44.5,4.6,44.5,2.6z"/>
	<path fill="#908470" d="M10.4,7.5C10.4,7.5,10.3,7.5,10.4,7.5c3.1-1.8,1.9-4.4,1.9-4.4C11.7,2,10.6,1.2,9,1.2H5.6
		C5.2,1.2,5,1.4,5,1.7v11.8C5,13.9,5.2,14,5.6,14c0.4,0,0.6-0.2,0.6-0.5v-1.1c0-0.9,0.2-2.8,1.6-3.5l1.3-0.8c1.4,1.1,2,2.3,2,3.8
		v1.5c0,0.3,0.2,0.5,0.6,0.5c0.4,0,0.6-0.2,0.6-0.5v-1.5C12.5,10.1,11.8,8.7,10.4,7.5z M6.3,8.7V2.4H9c1.1,0,1.8,0.4,2.2,1.3
		C11.9,6.2,6.9,7.5,6.3,8.7z"/>
</g>
</svg>
