<?xml version="1.0" encoding="utf-8"?>
<!-- Generator: Adobe Illustrator 18.0.0, SVG Export Plug-In . SVG Version: 6.00 Build 0)  -->
<!DOCTYPE svg PUBLIC "-//W3C//DTD SVG 1.1//EN" "http://www.w3.org/Graphics/SVG/1.1/DTD/svg11.dtd">
<svg version="1.1" id="Capa_1" xmlns="http://www.w3.org/2000/svg" xmlns:xlink="http://www.w3.org/1999/xlink" x="0px" y="0px"
	 viewBox="0 0 44 44" enable-background="new 0 0 44 44" xml:space="preserve">
<g>
	<g>
		<g>
			<path fill="#8F846F" d="M36,20.4H8c-0.9,0-1.6,0.7-1.6,1.6s0.7,1.6,1.6,1.6h28c0.9,0,1.6-0.7,1.6-1.6S36.9,20.4,36,20.4z"/>
			<path fill="#8F846F" d="M8,14.2h28c0.9,0,1.6-0.7,1.6-1.6c0-0.9-0.7-1.6-1.6-1.6H8c-0.9,0-1.6,0.7-1.6,1.6
				C6.4,13.5,7.1,14.2,8,14.2z"/>
			<path fill="#8F846F" d="M36,29.8H8c-0.9,0-1.6,0.7-1.6,1.6c0,0.9,0.7,1.6,1.6,1.6h28c0.9,0,1.6-0.7,1.6-1.6S36.9,29.8,36,29.8z"
				/>
		</g>
	</g>
</g>
</svg>
